<svg width="186" height="198" viewBox="0 0 186 198" fill="none" xmlns="http://www.w3.org/2000/svg">
<path d="M74.5 6C80.2917 3.21998 87 7.44106 87 13.8654V21C87 21.5161 86.7261 21.9934 86.2805 22.2538L28.8003 55.8496C22.1885 59.714 22.1967 69.272 28.815 73.1252L86.1358 106.497C86.6709 106.808 87 107.381 87 108V113.245C87 120.946 78.5061 125.621 72 121.5L5.00626 82.8856C1.90872 81.1002 0 77.7969 0 74.2217V55.2409C0 51.6857 1.88754 48.3979 4.95769 46.6052L74.5 6Z" fill="#05abcc"/>
<path d="M54 65L87.75 45.0814V84.9186L54 65Z" fill="#05abcc"/>
<path d="M74.5 6C80.2917 3.21998 87 7.44106 87 13.8654V21C87 21.5161 86.7261 21.9934 86.2805 22.2538L28.8003 55.8496C22.1885 59.714 22.1967 69.272 28.815 73.1252L86.1358 106.497C86.6709 106.808 87 107.381 87 108V113.245C87 120.946 78.5061 125.621 72 121.5L5.00626 82.8856C1.90872 81.1002 0 77.7969 0 74.2217V55.2409C0 51.6857 1.88754 48.3979 4.95769 46.6052L74.5 6Z" fill="#05abcc"/>
<path d="M54 65L87.75 45.0814V84.9186L54 65Z" fill="#05abcc"/>
<path d="M111.5 192C105.708 194.78 99 190.559 99 184.135V177C99 176.484 99.2739 176.007 99.7195 175.746L157.2 142.15C163.811 138.286 163.803 128.728 157.185 124.875L99.8642 91.5031C99.3291 91.1916 99 90.6191 99 90V84.7553C99 77.0541 107.494 72.3794 114 76.5L180.994 115.114C184.091 116.9 186 120.203 186 123.778V142.759C186 146.314 184.112 149.602 181.042 151.395L111.5 192Z" fill="#05abcc"/>
<path d="M132 133L98.25 152.919L98.25 113.081L132 133Z" fill="#05abcc"/>
<path d="M111.5 192C105.708 194.78 99 190.559 99 184.135V177C99 176.484 99.2739 176.007 99.7195 175.746L157.2 142.15C163.811 138.286 163.803 128.728 157.185 124.875L99.8642 91.5031C99.3291 91.1916 99 90.6191 99 90V84.7553C99 77.0541 107.494 72.3794 114 76.5L180.994 115.114C184.091 116.9 186 120.203 186 123.778V142.759C186 146.314 184.112 149.602 181.042 151.395L111.5 192Z" fill="#05abcc"/>
<path d="M132 133L98.25 152.919L98.25 113.081L132 133Z" fill="#05abcc"/>
</svg>
