<svg width="483" height="204" viewBox="0 0 483 204" fill="none" xmlns="http://www.w3.org/2000/svg">
<path d="M74.5 12V12C80.2917 9.21998 87 13.4411 87 19.8654V27V27C87 27.5161 86.7261 27.9934 86.2805 28.2538L28.8003 61.8496C22.1885 65.714 22.1967 75.272 28.815 79.1252L86.1358 112.497C86.6709 112.808 87 113.381 87 114V114V119.245C87 126.946 78.5061 131.621 72 127.5V127.5L5.00626 88.8855C1.90872 87.1002 0 83.7969 0 80.2217V61.2409C0 57.6857 1.88754 54.3979 4.95769 52.6052L74.5 12Z" fill="black"/>
<path d="M54 71L87.75 51.0814V90.9186L54 71Z" fill="black"/>
<path d="M74.5 12V12C80.2917 9.21998 87 13.4411 87 19.8654V27V27C87 27.5161 86.7261 27.9934 86.2805 28.2538L28.8003 61.8496C22.1885 65.714 22.1967 75.272 28.815 79.1252L86.1358 112.497C86.6709 112.808 87 113.381 87 114V114V119.245C87 126.946 78.5061 131.621 72 127.5V127.5L5.00626 88.8855C1.90872 87.1002 0 83.7969 0 80.2217V61.2409C0 57.6857 1.88754 54.3979 4.95769 52.6052L74.5 12Z" fill="black"/>
<path d="M54 71L87.75 51.0814V90.9186L54 71Z" fill="black"/>
<path d="M111.5 198V198C105.708 200.78 99 196.559 99 190.135V183V183C99 182.484 99.2739 182.007 99.7195 181.746L157.2 148.15C163.811 144.286 163.803 134.728 157.185 130.875L99.8642 97.5031C99.3291 97.1916 99 96.6191 99 96V96V90.7553C99 83.0541 107.494 78.3794 114 82.5V82.5L180.994 121.114C184.091 122.9 186 126.203 186 129.778V148.759C186 152.314 184.112 155.602 181.042 157.395L111.5 198Z" fill="black"/>
<path d="M132 139L98.25 158.919L98.25 119.081L132 139Z" fill="black"/>
<path d="M111.5 198V198C105.708 200.78 99 196.559 99 190.135V183V183C99 182.484 99.2739 182.007 99.7195 181.746L157.2 148.15C163.811 144.286 163.803 134.728 157.185 130.875L99.8642 97.5031C99.3291 97.1916 99 96.6191 99 96V96V90.7553C99 83.0541 107.494 78.3794 114 82.5V82.5L180.994 121.114C184.091 122.9 186 126.203 186 129.778V148.759C186 152.314 184.112 155.602 181.042 157.395L111.5 198Z" fill="black"/>
<path d="M132 139L98.25 158.919L98.25 119.081L132 139Z" fill="black"/>
<path d="M172.24 81C170.32 81 168.56 80.5467 166.96 79.64C165.413 78.68 164.16 77.4 163.2 75.8C162.293 74.2 161.84 72.4667 161.84 70.6V45C161.84 43.08 162.293 41.3467 163.2 39.8C164.16 38.2533 165.413 37 166.96 36.04C168.56 35.08 170.32 34.6 172.24 34.6H200.4V19.4H209.04V81H172.24ZM172.56 72.36H198.48C199.013 72.36 199.467 72.1733 199.84 71.8C200.213 71.3733 200.4 70.8933 200.4 70.36V45.24C200.4 44.7067 200.213 44.2533 199.84 43.88C199.467 43.4533 199.013 43.24 198.48 43.24H172.56C172.027 43.24 171.547 43.4533 171.12 43.88C170.747 44.2533 170.56 44.7067 170.56 45.24V70.36C170.56 70.8933 170.747 71.3733 171.12 71.8C171.547 72.1733 172.027 72.36 172.56 72.36ZM228.599 81C226.679 81 224.945 80.52 223.399 79.56C221.852 78.6 220.599 77.3467 219.639 75.8C218.679 74.2533 218.199 72.52 218.199 70.6V45C218.199 43.08 218.679 41.3467 219.639 39.8C220.599 38.2533 221.852 37 223.399 36.04C224.945 35.08 226.679 34.6 228.599 34.6H254.999C256.919 34.6 258.652 35.08 260.199 36.04C261.799 36.9467 263.052 38.2 263.959 39.8C264.919 41.4 265.399 43.1333 265.399 45V62.12H226.839V70.36C226.839 70.8933 227.025 71.3733 227.399 71.8C227.825 72.1733 228.305 72.36 228.839 72.36H265.399V81H228.599ZM226.839 54.04H256.679V45.24C256.679 44.7067 256.492 44.2533 256.119 43.88C255.745 43.4533 255.292 43.24 254.759 43.24H228.839C228.305 43.24 227.825 43.4533 227.399 43.88C227.025 44.2533 226.839 44.7067 226.839 45.24V54.04ZM296.533 81L270.933 34.6H280.933L300.853 71.24L320.773 34.6H330.773L305.173 81H296.533ZM319.896 99.4V90.68H339.496C340.03 90.68 340.483 90.4933 340.856 90.12C341.283 89.7467 341.496 89.2933 341.496 88.76V34.6H350.136V89C350.136 90.92 349.656 92.6533 348.696 94.2C347.79 95.8 346.536 97.0533 344.936 97.96C343.39 98.92 341.656 99.4 339.736 99.4H319.896ZM341.496 28.04V19.4H350.136V28.04H341.496ZM369.861 81C367.941 81 366.208 80.52 364.661 79.56C363.115 78.6 361.861 77.3467 360.901 75.8C359.941 74.2533 359.461 72.52 359.461 70.6V45C359.461 43.08 359.941 41.3467 360.901 39.8C361.861 38.2533 363.115 37 364.661 36.04C366.208 35.08 367.941 34.6 369.861 34.6H396.261C398.181 34.6 399.915 35.08 401.461 36.04C403.061 36.9467 404.315 38.2 405.221 39.8C406.181 41.4 406.661 43.1333 406.661 45V62.12H368.101V70.36C368.101 70.8933 368.288 71.3733 368.661 71.8C369.088 72.1733 369.568 72.36 370.101 72.36H406.661V81H369.861ZM368.101 54.04H397.941V45.24C397.941 44.7067 397.755 44.2533 397.381 43.88C397.008 43.4533 396.555 43.24 396.021 43.24H370.101C369.568 43.24 369.088 43.4533 368.661 43.88C368.288 44.2533 368.101 44.7067 368.101 45.24V54.04ZM417.412 81V29.8C417.412 27.88 417.865 26.1467 418.772 24.6C419.732 23 420.985 21.7467 422.532 20.84C424.132 19.88 425.892 19.4 427.812 19.4H445.092V28.04H428.052C427.519 28.04 427.039 28.2533 426.612 28.68C426.239 29.0533 426.052 29.5067 426.052 30.04V34.6H445.092V43.24H426.052V81H417.412ZM453.327 81V29.8C453.327 27.88 453.781 26.1467 454.687 24.6C455.647 23 456.901 21.7467 458.447 20.84C460.047 19.88 461.807 19.4 463.727 19.4H481.007V28.04H463.967C463.434 28.04 462.954 28.2533 462.527 28.68C462.154 29.0533 461.967 29.5067 461.967 30.04V34.6H481.007V43.24H461.967V81H453.327Z" fill="black"/>
</svg>
