<svg width="540" height="198" viewBox="0 0 540 198" fill="none" xmlns="http://www.w3.org/2000/svg">
<path d="M74.5 6V6C80.2917 3.21998 87 7.44106 87 13.8654V21V21C87 21.5161 86.7261 21.9934 86.2805 22.2538L28.8003 55.8496C22.1885 59.714 22.1967 69.272 28.815 73.1252L86.1358 106.497C86.6709 106.808 87 107.381 87 108V108V113.245C87 120.946 78.5061 125.621 72 121.5V121.5L5.00626 82.8855C1.90872 81.1002 0 77.7969 0 74.2217V55.2409C0 51.6857 1.88754 48.3979 4.95769 46.6052L74.5 6Z" fill="black"/>
<path d="M54 65L87.75 45.0814V84.9186L54 65Z" fill="black"/>
<path d="M74.5 6V6C80.2917 3.21998 87 7.44106 87 13.8654V21V21C87 21.5161 86.7261 21.9934 86.2805 22.2538L28.8003 55.8496C22.1885 59.714 22.1967 69.272 28.815 73.1252L86.1358 106.497C86.6709 106.808 87 107.381 87 108V108V113.245C87 120.946 78.5061 125.621 72 121.5V121.5L5.00626 82.8855C1.90872 81.1002 0 77.7969 0 74.2217V55.2409C0 51.6857 1.88754 48.3979 4.95769 46.6052L74.5 6Z" fill="black"/>
<path d="M54 65L87.75 45.0814V84.9186L54 65Z" fill="black"/>
<path d="M111.5 192V192C105.708 194.78 99 190.559 99 184.135V177V177C99 176.484 99.2739 176.007 99.7195 175.746L157.2 142.15C163.811 138.286 163.803 128.728 157.185 124.875L99.8642 91.5031C99.3291 91.1916 99 90.6191 99 90V90V84.7553C99 77.0541 107.494 72.3794 114 76.5V76.5L180.994 115.114C184.091 116.9 186 120.203 186 123.778V142.759C186 146.314 184.112 149.602 181.042 151.395L111.5 192Z" fill="black"/>
<path d="M132 133L98.25 152.919L98.25 113.081L132 133Z" fill="black"/>
<path d="M111.5 192V192C105.708 194.78 99 190.559 99 184.135V177V177C99 176.484 99.2739 176.007 99.7195 175.746L157.2 142.15C163.811 138.286 163.803 128.728 157.185 124.875L99.8642 91.5031C99.3291 91.1916 99 90.6191 99 90V90V84.7553C99 77.0541 107.494 72.3794 114 76.5V76.5L180.994 115.114C184.091 116.9 186 120.203 186 123.778V142.759C186 146.314 184.112 149.602 181.042 151.395L111.5 192Z" fill="black"/>
<path d="M132 133L98.25 152.919L98.25 113.081L132 133Z" fill="black"/>
<path d="M201.944 169.28V140.12H218.504C219.368 140.12 220.148 140.336 220.844 140.768C221.564 141.2 222.128 141.764 222.536 142.46C222.968 143.156 223.184 143.936 223.184 144.8V156.32C223.184 157.184 222.968 157.964 222.536 158.66C222.128 159.356 221.564 159.92 220.844 160.352C220.148 160.784 219.368 161 218.504 161H205.832V169.28H201.944ZM206.732 157.112H218.396C218.636 157.112 218.84 157.028 219.008 156.86C219.2 156.668 219.296 156.452 219.296 156.212V144.908C219.296 144.668 219.2 144.464 219.008 144.296C218.84 144.104 218.636 144.008 218.396 144.008H206.732C206.492 144.008 206.276 144.104 206.084 144.296C205.916 144.464 205.832 144.668 205.832 144.908V156.212C205.832 156.452 205.916 156.668 206.084 156.86C206.276 157.028 206.492 157.112 206.732 157.112ZM248.422 161C247.558 161 246.778 160.784 246.082 160.352C245.386 159.92 244.822 159.356 244.39 158.66C243.958 157.964 243.742 157.184 243.742 156.32V144.8C243.742 143.936 243.958 143.156 244.39 142.46C244.822 141.764 245.386 141.2 246.082 140.768C246.778 140.336 247.558 140.12 248.422 140.12H260.302C261.166 140.12 261.946 140.336 262.642 140.768C263.362 141.176 263.926 141.74 264.334 142.46C264.766 143.18 264.982 143.96 264.982 144.8V156.32C264.982 157.184 264.766 157.964 264.334 158.66C263.926 159.356 263.362 159.92 262.642 160.352C261.946 160.784 261.166 161 260.302 161H248.422ZM248.53 157.112H260.194C260.434 157.112 260.638 157.028 260.806 156.86C260.974 156.668 261.058 156.452 261.058 156.212V144.908C261.058 144.668 260.974 144.464 260.806 144.296C260.638 144.104 260.434 144.008 260.194 144.008H248.53C248.29 144.008 248.074 144.104 247.882 144.296C247.714 144.464 247.63 144.668 247.63 144.908V156.212C247.63 156.452 247.714 156.668 247.882 156.86C248.074 157.028 248.29 157.112 248.53 157.112ZM286.142 161V144.8C286.142 143.936 286.358 143.156 286.79 142.46C287.222 141.764 287.786 141.2 288.482 140.768C289.202 140.336 289.982 140.12 290.822 140.12H302.486V144.008H290.93C290.69 144.008 290.474 144.104 290.282 144.296C290.114 144.464 290.03 144.668 290.03 144.908V161H286.142ZM327.455 161C326.591 161 325.799 160.784 325.079 160.352C324.383 159.92 323.819 159.356 323.387 158.66C322.979 157.964 322.775 157.184 322.775 156.32V133.532H326.663V140.12H335.231V144.008H326.663V156.212C326.663 156.452 326.747 156.668 326.915 156.86C327.107 157.028 327.323 157.112 327.563 157.112H335.231V161H327.455ZM356.068 161V137.96C356.068 137.096 356.272 136.316 356.68 135.62C357.112 134.9 357.676 134.336 358.372 133.928C359.092 133.496 359.884 133.28 360.748 133.28H368.524V137.168H360.856C360.616 137.168 360.4 137.264 360.208 137.456C360.04 137.624 359.956 137.828 359.956 138.068V140.12H368.524V144.008H359.956V161H356.068ZM393.899 161C393.035 161 392.255 160.784 391.559 160.352C390.863 159.92 390.299 159.356 389.867 158.66C389.435 157.964 389.219 157.184 389.219 156.32V144.8C389.219 143.936 389.435 143.156 389.867 142.46C390.299 141.764 390.863 141.2 391.559 140.768C392.255 140.336 393.035 140.12 393.899 140.12H405.779C406.643 140.12 407.423 140.336 408.119 140.768C408.839 141.176 409.403 141.74 409.811 142.46C410.243 143.18 410.459 143.96 410.459 144.8V156.32C410.459 157.184 410.243 157.964 409.811 158.66C409.403 159.356 408.839 159.92 408.119 160.352C407.423 160.784 406.643 161 405.779 161H393.899ZM394.007 157.112H405.671C405.911 157.112 406.115 157.028 406.283 156.86C406.451 156.668 406.535 156.452 406.535 156.212V144.908C406.535 144.668 406.451 144.464 406.283 144.296C406.115 144.104 405.911 144.008 405.671 144.008H394.007C393.767 144.008 393.551 144.104 393.359 144.296C393.191 144.464 393.107 144.668 393.107 144.908V156.212C393.107 156.452 393.191 156.668 393.359 156.86C393.551 157.028 393.767 157.112 394.007 157.112ZM436.052 161C435.188 161 434.408 160.784 433.712 160.352C433.016 159.92 432.452 159.356 432.02 158.66C431.588 157.964 431.372 157.184 431.372 156.32V133.28H435.26V156.212C435.26 156.452 435.344 156.668 435.512 156.86C435.704 157.028 435.92 157.112 436.16 157.112H439.94V161H436.052ZM461.114 161V140.12H465.002V161H461.114ZM461.114 137.168V133.28H465.002V137.168H461.114ZM491.528 161C490.664 161 489.884 160.784 489.188 160.352C488.492 159.92 487.928 159.356 487.496 158.66C487.064 157.964 486.848 157.184 486.848 156.32V144.8C486.848 143.936 487.064 143.156 487.496 142.46C487.928 141.764 488.492 141.2 489.188 140.768C489.884 140.336 490.664 140.12 491.528 140.12H503.408C504.272 140.12 505.052 140.336 505.748 140.768C506.468 141.176 507.032 141.74 507.44 142.46C507.872 143.18 508.088 143.96 508.088 144.8V156.32C508.088 157.184 507.872 157.964 507.44 158.66C507.032 159.356 506.468 159.92 505.748 160.352C505.052 160.784 504.272 161 503.408 161H491.528ZM491.636 157.112H503.3C503.54 157.112 503.744 157.028 503.912 156.86C504.08 156.668 504.164 156.452 504.164 156.212V144.908C504.164 144.668 504.08 144.464 503.912 144.296C503.744 144.104 503.54 144.008 503.3 144.008H491.636C491.396 144.008 491.18 144.104 490.988 144.296C490.82 144.464 490.736 144.668 490.736 144.908V156.212C490.736 156.452 490.82 156.668 490.988 156.86C491.18 157.028 491.396 157.112 491.636 157.112Z" fill="black"/>
<path d="M202.24 103C200.32 103 198.56 102.547 196.96 101.64C195.413 100.68 194.16 99.4 193.2 97.8C192.293 96.2 191.84 94.4667 191.84 92.6V67C191.84 65.08 192.293 63.3467 193.2 61.8C194.16 60.2533 195.413 59 196.96 58.04C198.56 57.08 200.32 56.6 202.24 56.6H230.4V41.4H239.04V103H202.24ZM202.56 94.36H228.48C229.013 94.36 229.467 94.1733 229.84 93.8C230.213 93.3733 230.4 92.8933 230.4 92.36V67.24C230.4 66.7067 230.213 66.2533 229.84 65.88C229.467 65.4533 229.013 65.24 228.48 65.24H202.56C202.027 65.24 201.547 65.4533 201.12 65.88C200.747 66.2533 200.56 66.7067 200.56 67.24V92.36C200.56 92.8933 200.747 93.3733 201.12 93.8C201.547 94.1733 202.027 94.36 202.56 94.36ZM258.599 103C256.679 103 254.945 102.52 253.399 101.56C251.852 100.6 250.599 99.3467 249.639 97.8C248.679 96.2533 248.199 94.52 248.199 92.6V67C248.199 65.08 248.679 63.3467 249.639 61.8C250.599 60.2533 251.852 59 253.399 58.04C254.945 57.08 256.679 56.6 258.599 56.6H284.999C286.919 56.6 288.652 57.08 290.199 58.04C291.799 58.9467 293.052 60.2 293.959 61.8C294.919 63.4 295.399 65.1333 295.399 67V84.12H256.839V92.36C256.839 92.8933 257.025 93.3733 257.399 93.8C257.825 94.1733 258.305 94.36 258.839 94.36H295.399V103H258.599ZM256.839 76.04H286.679V67.24C286.679 66.7067 286.492 66.2533 286.119 65.88C285.745 65.4533 285.292 65.24 284.759 65.24H258.839C258.305 65.24 257.825 65.4533 257.399 65.88C257.025 66.2533 256.839 66.7067 256.839 67.24V76.04ZM326.533 103L300.933 56.6H310.933L330.853 93.24L350.773 56.6H360.773L335.173 103H326.533ZM349.896 121.4V112.68H369.496C370.03 112.68 370.483 112.493 370.856 112.12C371.283 111.747 371.496 111.293 371.496 110.76V56.6H380.136V111C380.136 112.92 379.656 114.653 378.696 116.2C377.79 117.8 376.536 119.053 374.936 119.96C373.39 120.92 371.656 121.4 369.736 121.4H349.896ZM371.496 50.04V41.4H380.136V50.04H371.496ZM399.861 103C397.941 103 396.208 102.52 394.661 101.56C393.115 100.6 391.861 99.3467 390.901 97.8C389.941 96.2533 389.461 94.52 389.461 92.6V67C389.461 65.08 389.941 63.3467 390.901 61.8C391.861 60.2533 393.115 59 394.661 58.04C396.208 57.08 397.941 56.6 399.861 56.6H426.261C428.181 56.6 429.915 57.08 431.461 58.04C433.061 58.9467 434.315 60.2 435.221 61.8C436.181 63.4 436.661 65.1333 436.661 67V84.12H398.101V92.36C398.101 92.8933 398.288 93.3733 398.661 93.8C399.088 94.1733 399.568 94.36 400.101 94.36H436.661V103H399.861ZM398.101 76.04H427.941V67.24C427.941 66.7067 427.755 66.2533 427.381 65.88C427.008 65.4533 426.555 65.24 426.021 65.24H400.101C399.568 65.24 399.088 65.4533 398.661 65.88C398.288 66.2533 398.101 66.7067 398.101 67.24V76.04ZM447.412 103V51.8C447.412 49.88 447.865 48.1467 448.772 46.6C449.732 45 450.985 43.7467 452.532 42.84C454.132 41.88 455.892 41.4 457.812 41.4H475.092V50.04H458.052C457.519 50.04 457.039 50.2533 456.612 50.68C456.239 51.0533 456.052 51.5067 456.052 52.04V56.6H475.092V65.24H456.052V103H447.412ZM483.327 103V51.8C483.327 49.88 483.781 48.1467 484.687 46.6C485.647 45 486.901 43.7467 488.447 42.84C490.047 41.88 491.807 41.4 493.727 41.4H511.007V50.04H493.967C493.434 50.04 492.954 50.2533 492.527 50.68C492.154 51.0533 491.967 51.5067 491.967 52.04V56.6H511.007V65.24H491.967V103H483.327Z" fill="black"/>
</svg>
